<svg width="34" height="34" viewBox="0 0 34 34" fill="none" xmlns="http://www.w3.org/2000/svg">
<path d="M16.5375 16.5375H26.1844V19.2938H16.5375V28.9406H13.7813V11.025C13.7813 7.98055 16.2494 5.51252 19.2938 5.51252H28.9407V8.26877H19.2938C17.7715 8.26877 16.5375 9.50279 16.5375 11.025V16.5375ZM6.20161 13.7813C3.5377 13.7813 1.37817 11.6218 1.37817 8.95784C1.37817 6.29392 3.5377 4.1344 6.20161 4.1344C8.86553 4.1344 11.025 6.29392 11.025 8.95784C11.025 11.6218 8.86553 13.7813 6.20161 13.7813ZM6.20161 11.025C7.34329 11.025 8.2688 10.0995 8.2688 8.95784C8.2688 7.81616 7.34329 6.89065 6.20161 6.89065C5.05993 6.89065 4.13442 7.81616 4.13442 8.95784C4.13442 10.0995 5.05993 11.025 6.20161 11.025Z" fill="#171717"/>
</svg>
