<svg width="34" height="34" viewBox="0 0 34 34" fill="none" xmlns="http://www.w3.org/2000/svg">
<path d="M11.025 6.89067C11.025 3.8462 13.493 1.37817 16.5375 1.37817C19.5819 1.37817 22.05 3.8462 22.05 6.89067V14.1323C24.5492 15.8755 26.1844 18.7719 26.1844 22.0501C26.1844 27.3779 21.8653 31.6969 16.5375 31.6969C11.2097 31.6969 6.89062 27.3779 6.89062 22.0501C6.89062 18.7719 8.5258 15.8755 11.025 14.1323V6.89067ZM12.6019 16.393C10.7624 17.676 9.64688 19.7668 9.64688 22.0501C9.64688 25.8556 12.7319 28.9407 16.5375 28.9407C20.3431 28.9407 23.4281 25.8556 23.4281 22.0501C23.4281 19.7668 22.3127 17.676 20.4731 16.393L19.2938 15.5702V6.89067C19.2938 5.36844 18.0598 4.13442 16.5375 4.13442C15.0152 4.13442 13.7813 5.36844 13.7813 6.89067V15.5702L12.6019 16.393ZM11.025 22.0501H22.05C22.05 25.0945 19.5819 27.5625 16.5375 27.5625C13.493 27.5625 11.025 25.0945 11.025 22.0501Z" fill="#171717"/>
</svg>
