<svg width="34" height="34" viewBox="0 0 34 34" fill="none" xmlns="http://www.w3.org/2000/svg">
<path d="M16.5375 26.1843C17.6791 26.1843 18.6047 27.1099 18.6047 28.2515C18.6047 29.3932 17.6791 30.3187 16.5375 30.3187C15.3958 30.3187 14.4703 29.3932 14.4703 28.2515C14.4703 27.1099 15.3958 26.1843 16.5375 26.1843ZM26.8734 26.1843C28.0151 26.1843 28.9406 27.1099 28.9406 28.2515C28.9406 29.3932 28.0151 30.3187 26.8734 30.3187C25.7318 30.3187 24.8062 29.3932 24.8062 28.2515C24.8062 27.1099 25.7318 26.1843 26.8734 26.1843ZM6.20154 26.1843C7.34322 26.1843 8.26873 27.1099 8.26873 28.2515C8.26873 29.3932 7.34322 30.3187 6.20154 30.3187C5.05986 30.3187 4.13435 29.3932 4.13435 28.2515C4.13435 27.1099 5.05986 26.1843 6.20154 26.1843ZM23.4281 9.64685C27.2337 9.64685 30.3187 12.7319 30.3187 16.5375C30.3187 20.343 27.2337 23.4281 23.4281 23.4281C20.8874 23.4281 18.5903 21.9942 16.5371 19.1263C14.4846 21.9942 12.1876 23.4281 9.64685 23.4281C5.84127 23.4281 2.75623 20.343 2.75623 16.5375C2.75623 12.7319 5.84127 9.64685 9.64685 9.64685C12.1876 9.64685 14.4846 11.0808 16.5379 13.9487C18.5903 11.0808 20.8874 9.64685 23.4281 9.64685ZM9.64685 12.4031C7.3635 12.4031 5.51248 14.2541 5.51248 16.5375C5.51248 18.8209 7.3635 20.6719 9.64685 20.6719C11.3746 20.6719 13.1049 19.4657 14.8268 16.7385L14.9499 16.5361L14.8268 16.3364C13.1766 13.7228 11.5188 12.5063 9.86283 12.4094L9.64685 12.4031ZM23.4281 12.4031C21.7003 12.4031 19.9701 13.6092 18.2481 16.3364L18.1237 16.5375L18.2481 16.7385C19.8983 19.3522 21.5562 20.5688 23.2121 20.6655L23.4281 20.6719C25.7115 20.6719 27.5625 18.8209 27.5625 16.5375C27.5625 14.2541 25.7115 12.4031 23.4281 12.4031ZM16.5375 2.75623C17.6791 2.75623 18.6047 3.68173 18.6047 4.82341C18.6047 5.96509 17.6791 6.8906 16.5375 6.8906C15.3958 6.8906 14.4703 5.96509 14.4703 4.82341C14.4703 3.68173 15.3958 2.75623 16.5375 2.75623ZM6.20154 2.75623C7.34322 2.75623 8.26873 3.68173 8.26873 4.82341C8.26873 5.96509 7.34322 6.8906 6.20154 6.8906C5.05986 6.8906 4.13435 5.96509 4.13435 4.82341C4.13435 3.68173 5.05986 2.75623 6.20154 2.75623ZM26.8734 2.75623C28.0151 2.75623 28.9406 3.68173 28.9406 4.82341C28.9406 5.96509 28.0151 6.8906 26.8734 6.8906C25.7318 6.8906 24.8062 5.96509 24.8062 4.82341C24.8062 3.68173 25.7318 2.75623 26.8734 2.75623Z" fill="#171717"/>
</svg>
