<svg width="34" height="34" viewBox="0 0 34 34" fill="none" xmlns="http://www.w3.org/2000/svg">
<path d="M8.38313 17.9157C8.30794 17.4675 8.2688 17.0071 8.2688 16.5375C8.2688 11.9708 11.9708 8.2688 16.5375 8.2688C21.1042 8.2688 24.8063 11.9708 24.8063 16.5375C24.8063 17.0071 24.7672 17.4675 24.6919 17.9157H21.8764C21.9897 17.4752 22.0501 17.0134 22.0501 16.5375C22.0501 13.4931 19.582 11.025 16.5375 11.025C13.4931 11.025 11.025 13.4931 11.025 16.5375C11.025 17.0134 11.0853 17.4752 11.1987 17.9157H8.38313ZM2.7563 20.6719H16.5375V23.4282H2.7563V20.6719ZM19.2938 20.6719H30.3188V23.4282H19.2938V20.6719ZM22.0501 26.1844H27.5625V28.9407H22.0501V26.1844ZM5.51255 26.1844H19.2938V28.9407H5.51255V26.1844ZM15.1594 1.37817H17.9157V5.51255H15.1594V1.37817ZM4.84377 6.79273L6.79273 4.84377L9.71618 7.76722L7.76722 9.71617L4.84377 6.79273ZM26.2824 4.84377L28.2314 6.79273L25.3079 9.71617L23.3589 7.76722L26.2824 4.84377ZM31.6969 15.1594V17.9157H27.5625V15.1594H31.6969ZM5.51255 15.1594V17.9157H1.37817V15.1594H5.51255Z" fill="#171717"/>
</svg>
