<svg width="34" height="34" viewBox="0 0 34 34" fill="none" xmlns="http://www.w3.org/2000/svg">
<path d="M11.725 16.5438H14.4813V19.3H6.21255V16.5438H8.9688C8.9688 11.9771 12.6708 8.27502 17.2375 8.27502C21.8042 8.27502 25.5063 11.9771 25.5063 16.5438C25.5063 21.1105 21.8042 24.8125 17.2375 24.8125V22.0563C20.282 22.0563 22.75 19.5882 22.75 16.5438C22.75 13.4993 20.282 11.0313 17.2375 11.0313C14.1931 11.0313 11.725 13.4993 11.725 16.5438ZM8.9688 27.5688H21.3719V30.325H8.9688V27.5688ZM3.4563 22.0563H14.4813V24.8125H3.4563V22.0563ZM15.8594 1.3844H18.6157V5.51877H15.8594V1.3844ZM5.54377 6.79896L7.49273 4.85L10.4162 7.77344L8.46722 9.7224L5.54377 6.79896ZM24.0589 25.3142L26.0079 23.3651L28.9314 26.2886L26.9824 28.2376L24.0589 25.3142ZM26.9824 4.85L28.9314 6.79896L26.0079 9.7224L24.0589 7.77344L26.9824 4.85ZM32.3969 15.1656V17.9219H28.2625V15.1656H32.3969Z" fill="#171717"/>
</svg>
