<svg width="34" height="34" viewBox="0 0 34 34" fill="none" xmlns="http://www.w3.org/2000/svg">
<path d="M9.71615 11.0894L16.5375 4.26804L23.3588 11.0894C27.1262 14.8568 27.1262 20.9649 23.3588 24.7321C19.5916 28.4995 13.4835 28.4995 9.71615 24.7321C5.94881 20.9649 5.94881 14.8568 9.71615 11.0894ZM25.3079 9.14046L16.5375 0.370117L7.76719 9.14046C2.92347 13.9841 2.92347 21.8374 7.76719 26.6811C12.6109 31.5249 20.4641 31.5249 25.3079 26.6811C30.1516 21.8374 30.1516 13.9841 25.3079 9.14046ZM22.3845 14.0175L20.4356 12.0685L10.6907 21.8133L12.6396 23.7623L22.3845 14.0175ZM11.1779 15.4791C11.9852 16.2864 13.2941 16.2864 14.1014 15.4791C14.9087 14.6719 14.9087 13.363 14.1014 12.5557C13.2941 11.7484 11.9852 11.7484 11.1779 12.5557C10.3706 13.363 10.3706 14.6719 11.1779 15.4791ZM21.8972 23.275C21.0899 24.0823 19.7811 24.0823 18.9738 23.275C18.1665 22.4677 18.1665 21.1589 18.9738 20.3516C19.7811 19.5443 21.0899 19.5443 21.8972 20.3516C22.7045 21.1589 22.7045 22.4677 21.8972 23.275Z" fill="#171717"/>
</svg>
