<svg width="34" height="34" viewBox="0 0 34 34" fill="none" xmlns="http://www.w3.org/2000/svg">
<path d="M26.1844 12.4032C27.1032 13.8648 27.5625 15.7023 27.5625 17.9157C27.5625 22.05 22.7391 23.4282 20.6719 30.3188C19.7531 29.5269 19.2937 28.3785 19.2937 26.8735C19.2937 22.075 26.1844 19.5833 26.1844 12.4032ZM19.9828 6.89067C20.9016 8.59736 21.3609 10.4349 21.3609 12.4032C21.3609 19.2938 13.0922 20.6719 15.8484 30.3188C13.5515 28.7191 12.4031 26.4223 12.4031 23.4282C12.4031 18.8459 19.9828 15.1594 19.9828 6.89067ZM13.7812 1.37817C14.7 3.21567 15.1594 5.28286 15.1594 7.57974C15.1594 15.8485 2.75624 17.9157 11.025 30.3188C7.57968 29.6297 4.82343 26.1844 4.82343 22.05C4.82343 13.0922 13.7812 11.7141 13.7812 1.37817Z" fill="#171717"/>
</svg>
